<?xml version="1.0" encoding="UTF-8"?>
<svg xmlns="http://www.w3.org/2000/svg" xmlns:xlink="http://www.w3.org/1999/xlink" width="36pt" height="36pt" viewBox="0 0 36 36" version="1.1">
<g id="surface11513">
<path style=" stroke:none;fill-rule:nonzero;fill:rgb(9.019608%,9.019608%,9.411765%);fill-opacity:1;" d="M 18 1.199219 C 17.335938 1.199219 16.800781 1.738281 16.800781 2.398438 L 16.800781 7.199219 L 19.199219 7.199219 L 19.199219 2.398438 C 19.199219 1.738281 18.664062 1.199219 18 1.199219 Z M 19.199219 7.199219 L 19.199219 22.304688 L 21.953125 19.550781 C 22.421875 19.082031 23.179688 19.082031 23.648438 19.550781 C 24.117188 20.019531 24.117188 20.777344 23.648438 21.25 L 18.847656 26.046875 C 18.613281 26.28125 18.308594 26.398438 18 26.398438 C 17.691406 26.398438 17.386719 26.28125 17.152344 26.046875 L 12.351562 21.25 C 11.882812 20.777344 11.882812 20.019531 12.351562 19.550781 C 12.820312 19.082031 13.578125 19.082031 14.046875 19.550781 L 16.800781 22.304688 L 16.800781 7.199219 L 7.199219 7.199219 C 5.875 7.199219 4.800781 8.273438 4.800781 9.601562 L 4.800781 30 C 4.800781 31.324219 5.875 32.398438 7.199219 32.398438 L 28.800781 32.398438 C 30.125 32.398438 31.199219 31.324219 31.199219 30 L 31.199219 9.601562 C 31.199219 8.273438 30.125 7.199219 28.800781 7.199219 Z M 19.199219 7.199219 "/>
</g>
</svg>
