<?xml version="1.0" encoding="UTF-8"?>
<svg xmlns="http://www.w3.org/2000/svg" xmlns:xlink="http://www.w3.org/1999/xlink" width="30pt" height="30pt" viewBox="0 0 30 30" version="1.1">
<g id="surface11291">
<path style=" stroke:none;fill-rule:nonzero;fill:rgb(9.019608%,9.019608%,9.411765%);fill-opacity:1;" d="M 6 4 C 4.894531 4 4 4.894531 4 6 L 4 24 C 4 25.105469 4.894531 26 6 26 L 20.671875 26 L 18.0625 23.390625 C 17.761719 23.09375 17.566406 22.707031 17.5 22.292969 L 17.296875 21 L 9 21 C 8.445312 21 8 20.554688 8 20 C 8 19.445312 8.445312 19 9 19 L 17.015625 19 C 17.015625 18.472656 17.207031 17.964844 17.585938 17.585938 C 17.964844 17.207031 18.472656 17 19 17 C 19.105469 17 19.210938 17.007812 19.316406 17.027344 L 22.292969 17.5 C 22.707031 17.570312 23.089844 17.765625 23.390625 18.0625 L 26 20.671875 L 26 6 C 26 4.894531 25.105469 4 24 4 Z M 9 9 L 21 9 C 21.554688 9 22 9.445312 22 10 C 22 10.554688 21.554688 11 21 11 L 9 11 C 8.445312 11 8 10.554688 8 10 C 8 9.445312 8.445312 9 9 9 Z M 9 14 L 18 14 C 18.554688 14 19 14.445312 19 15 C 19 15.554688 18.554688 16 18 16 L 9 16 C 8.445312 16 8 15.554688 8 15 C 8 14.445312 8.445312 14 9 14 Z M 19 19 L 19.472656 21.976562 L 25.042969 27.542969 L 27.542969 25.042969 L 21.972656 19.476562 Z M 28.957031 26.457031 L 26.457031 28.957031 L 26.984375 29.484375 C 27.671875 30.171875 28.792969 30.171875 29.484375 29.484375 C 30.171875 28.792969 30.171875 27.671875 29.484375 26.984375 Z M 28.957031 26.457031 "/>
</g>
</svg>
