<?xml version="1.0" encoding="UTF-8"?>
<svg xmlns="http://www.w3.org/2000/svg" xmlns:xlink="http://www.w3.org/1999/xlink" width="30pt" height="30pt" viewBox="0 0 30 30" version="1.1">
<g id="surface730">
<path style=" stroke:none;fill-rule:nonzero;fill:rgb(9.019608%,9.019608%,9.411765%);fill-opacity:1;" d="M 20.855469 2 C 20.589844 2 20.328125 2.101562 20.125 2.304688 L 19.402344 3.03125 L 21.96875 5.601562 L 22.699219 4.875 C 23.097656 4.472656 23.097656 3.820312 22.699219 3.421875 L 21.578125 2.304688 C 21.378906 2.101562 21.117188 2 20.855469 2 Z M 18.371094 4.054688 L 10.542969 11.886719 L 11.3125 12.140625 L 11.570312 13.429688 L 12.859375 13.6875 L 13.113281 14.457031 L 20.941406 6.628906 Z M 3 8 C 1.898438 8 1 8.898438 1 10 L 1 20 C 1 21.101562 1.898438 22 3 22 L 27 22 C 28.101562 22 29 21.101562 29 20 L 29 10 C 29 8.898438 28.101562 8 27 8 L 22 8 L 20 10 L 27 10 L 27 20 L 3 20 L 3 10 L 10 10 L 12 8 Z M 9.59375 14.019531 L 9.019531 15.640625 C 9.019531 15.644531 9.019531 15.644531 9.015625 15.648438 L 9.015625 15.65625 C 9.003906 15.683594 9 15.710938 9 15.742188 C 9 15.8125 9.027344 15.875 9.074219 15.925781 C 9.125 15.972656 9.1875 16 9.257812 16 C 9.292969 16 9.324219 15.992188 9.355469 15.980469 L 10.980469 15.40625 Z M 9.59375 14.019531 "/>
</g>
</svg>
