<?xml version="1.0" encoding="UTF-8"?>
<svg xmlns="http://www.w3.org/2000/svg" xmlns:xlink="http://www.w3.org/1999/xlink" width="30pt" height="30pt" viewBox="0 0 30 30" version="1.1">
<g id="surface11397">
<path style=" stroke:none;fill-rule:nonzero;fill:rgb(9.019608%,9.019608%,9.411765%);fill-opacity:1;" d="M 4 3 C 2.894531 3 2 3.894531 2 5 L 2 23 C 2 24.105469 2.894531 25 4 25 L 5.28125 25 C 5.632812 25.59375 6.269531 26 7 26 L 10 26 C 10.730469 26 11.367188 25.59375 11.71875 25 L 18.28125 25 C 18.632812 25.59375 19.269531 26 20 26 L 23 26 C 23.730469 26 24.367188 25.59375 24.71875 25 L 26 25 C 27.105469 25 28 24.105469 28 23 L 28 7 C 28 5.894531 27.105469 5 26 5 L 11.199219 5 L 10.582031 3.96875 C 10.222656 3.367188 9.570312 3 8.867188 3 Z M 8 16 L 22 16 C 22.566406 16 23 16.433594 23 17 L 23 24 L 20 24 L 20 20 C 20 19.449219 19.550781 19 19 19 L 11 19 C 10.449219 19 10 19.449219 10 20 L 10 24 L 7 24 L 7 17 C 7 16.433594 7.433594 16 8 16 Z M 8 16 "/>
</g>
</svg>
